<mxfile host="65bd71144e">
    <diagram id="W4N4iPnpz5jSp3vxnJd3" name="Page-1">
        <mxGraphModel dx="1404" dy="982" grid="1" gridSize="10" guides="1" tooltips="1" connect="1" arrows="1" fold="1" page="1" pageScale="1" pageWidth="827" pageHeight="1169" math="0" shadow="0">
            <root>
                <mxCell id="0"/>
                <mxCell id="1" parent="0"/>
                <mxCell id="4" value="" style="edgeStyle=none;html=1;" edge="1" parent="1" source="2" target="3">
                    <mxGeometry relative="1" as="geometry"/>
                </mxCell>
                <mxCell id="2" value="Start" style="strokeWidth=2;html=1;shape=mxgraph.flowchart.terminator;whiteSpace=wrap;" vertex="1" parent="1">
                    <mxGeometry x="272.5" y="100" width="100" height="60" as="geometry"/>
                </mxCell>
                <mxCell id="6" value="" style="edgeStyle=none;html=1;" edge="1" parent="1" source="3" target="5">
                    <mxGeometry relative="1" as="geometry"/>
                </mxCell>
                <mxCell id="3" value="Get typeOfFood" style="shape=parallelogram;perimeter=parallelogramPerimeter;whiteSpace=wrap;html=1;fixedSize=1;strokeWidth=2;" vertex="1" parent="1">
                    <mxGeometry x="260" y="180" width="120" height="60" as="geometry"/>
                </mxCell>
                <mxCell id="8" value="" style="edgeStyle=none;html=1;" edge="1" parent="1" source="5" target="7">
                    <mxGeometry relative="1" as="geometry"/>
                </mxCell>
                <mxCell id="5" value="Get amountOfFood" style="shape=parallelogram;perimeter=parallelogramPerimeter;whiteSpace=wrap;html=1;fixedSize=1;strokeWidth=2;" vertex="1" parent="1">
                    <mxGeometry x="260" y="280" width="120" height="60" as="geometry"/>
                </mxCell>
                <mxCell id="10" value="" style="edgeStyle=none;html=1;" edge="1" parent="1" source="7" target="9">
                    <mxGeometry relative="1" as="geometry"/>
                </mxCell>
                <mxCell id="23" value="yes" style="edgeLabel;html=1;align=center;verticalAlign=middle;resizable=0;points=[];" vertex="1" connectable="0" parent="10">
                    <mxGeometry x="-0.336" relative="1" as="geometry">
                        <mxPoint as="offset"/>
                    </mxGeometry>
                </mxCell>
                <mxCell id="22" value="no" style="edgeStyle=none;html=1;" edge="1" parent="1" source="7" target="21">
                    <mxGeometry relative="1" as="geometry"/>
                </mxCell>
                <mxCell id="7" value="If typeOfFood = sub" style="rhombus;whiteSpace=wrap;html=1;strokeWidth=2;" vertex="1" parent="1">
                    <mxGeometry x="242.5" y="370" width="155" height="110" as="geometry"/>
                </mxCell>
                <mxCell id="12" value="" style="edgeStyle=none;html=1;" edge="1" parent="1" source="9" target="11">
                    <mxGeometry relative="1" as="geometry"/>
                </mxCell>
                <mxCell id="16" value="" style="edgeStyle=none;html=1;" edge="1" parent="1" source="9" target="15">
                    <mxGeometry relative="1" as="geometry"/>
                </mxCell>
                <mxCell id="9" value="if amountOfFood = 1" style="rhombus;whiteSpace=wrap;html=1;strokeWidth=2;" vertex="1" parent="1">
                    <mxGeometry x="280" y="575" width="90" height="105" as="geometry"/>
                </mxCell>
                <mxCell id="14" value="" style="edgeStyle=none;html=1;" edge="1" parent="1" source="11" target="13">
                    <mxGeometry relative="1" as="geometry"/>
                </mxCell>
                <mxCell id="18" value="" style="edgeStyle=none;html=1;" edge="1" parent="1" source="11" target="17">
                    <mxGeometry relative="1" as="geometry"/>
                </mxCell>
                <mxCell id="11" value="If amountOfFood = 2" style="rhombus;whiteSpace=wrap;html=1;strokeWidth=2;" vertex="1" parent="1">
                    <mxGeometry x="280" y="735" width="90" height="95" as="geometry"/>
                </mxCell>
                <mxCell id="20" value="" style="edgeStyle=none;html=1;" edge="1" parent="1" source="13" target="19">
                    <mxGeometry relative="1" as="geometry"/>
                </mxCell>
                <mxCell id="13" value="If amountOfFood = 3" style="rhombus;whiteSpace=wrap;html=1;strokeWidth=2;" vertex="1" parent="1">
                    <mxGeometry x="265" y="895" width="115" height="105" as="geometry"/>
                </mxCell>
                <mxCell id="55" value="" style="edgeStyle=none;html=1;" edge="1" parent="1" source="15">
                    <mxGeometry relative="1" as="geometry">
                        <mxPoint x="340" y="1070" as="targetPoint"/>
                        <Array as="points">
                            <mxPoint x="30" y="620"/>
                            <mxPoint x="30" y="1070"/>
                        </Array>
                    </mxGeometry>
                </mxCell>
                <mxCell id="15" value="heatingTime = 1 minute 0 seconds" style="shape=parallelogram;perimeter=parallelogramPerimeter;whiteSpace=wrap;html=1;fixedSize=1;strokeWidth=2;" vertex="1" parent="1">
                    <mxGeometry x="95" y="597.5" width="120" height="60" as="geometry"/>
                </mxCell>
                <mxCell id="57" value="" style="edgeStyle=none;html=1;" edge="1" parent="1" source="17">
                    <mxGeometry relative="1" as="geometry">
                        <mxPoint x="340" y="1070" as="targetPoint"/>
                        <Array as="points">
                            <mxPoint x="30" y="783"/>
                            <mxPoint x="30" y="1070"/>
                        </Array>
                    </mxGeometry>
                </mxCell>
                <mxCell id="17" value="heatingTime= 1 minute 30 seconds" style="shape=parallelogram;perimeter=parallelogramPerimeter;whiteSpace=wrap;html=1;fixedSize=1;strokeWidth=2;" vertex="1" parent="1">
                    <mxGeometry x="95" y="752.5" width="120" height="60" as="geometry"/>
                </mxCell>
                <mxCell id="59" value="" style="edgeStyle=none;html=1;" edge="1" parent="1" source="19">
                    <mxGeometry relative="1" as="geometry">
                        <mxPoint x="340" y="1070" as="targetPoint"/>
                        <Array as="points">
                            <mxPoint x="30" y="948"/>
                            <mxPoint x="30" y="1070"/>
                        </Array>
                    </mxGeometry>
                </mxCell>
                <mxCell id="19" value="heatingTime= 2 minutes 0 seconds" style="shape=parallelogram;perimeter=parallelogramPerimeter;whiteSpace=wrap;html=1;fixedSize=1;strokeWidth=2;" vertex="1" parent="1">
                    <mxGeometry x="67.5" y="917.5" width="120" height="60" as="geometry"/>
                </mxCell>
                <mxCell id="25" value="" style="edgeStyle=none;html=1;" edge="1" parent="1" source="21" target="24">
                    <mxGeometry relative="1" as="geometry"/>
                </mxCell>
                <mxCell id="39" value="no" style="edgeLabel;html=1;align=center;verticalAlign=middle;resizable=0;points=[];" vertex="1" connectable="0" parent="25">
                    <mxGeometry x="-0.385" y="3" relative="1" as="geometry">
                        <mxPoint as="offset"/>
                    </mxGeometry>
                </mxCell>
                <mxCell id="37" value="" style="edgeStyle=none;html=1;" edge="1" parent="1" source="21" target="29">
                    <mxGeometry relative="1" as="geometry"/>
                </mxCell>
                <mxCell id="38" value="yes" style="edgeLabel;html=1;align=center;verticalAlign=middle;resizable=0;points=[];" vertex="1" connectable="0" parent="37">
                    <mxGeometry x="-0.2716" y="-8" relative="1" as="geometry">
                        <mxPoint as="offset"/>
                    </mxGeometry>
                </mxCell>
                <mxCell id="21" value="else If typeOfFood = pizza" style="rhombus;whiteSpace=wrap;html=1;strokeWidth=2;" vertex="1" parent="1">
                    <mxGeometry x="590" y="370" width="155" height="110" as="geometry"/>
                </mxCell>
                <mxCell id="53" value="" style="edgeStyle=none;html=1;" edge="1" parent="1" source="24" target="44">
                    <mxGeometry relative="1" as="geometry"/>
                </mxCell>
                <mxCell id="24" value="else If typeOfFood = soup" style="rhombus;whiteSpace=wrap;html=1;strokeWidth=2;" vertex="1" parent="1">
                    <mxGeometry x="915" y="370" width="155" height="110" as="geometry"/>
                </mxCell>
                <mxCell id="27" value="" style="edgeStyle=none;html=1;" edge="1" parent="1" source="29" target="32">
                    <mxGeometry relative="1" as="geometry"/>
                </mxCell>
                <mxCell id="28" value="" style="edgeStyle=none;html=1;" edge="1" parent="1" source="29" target="34">
                    <mxGeometry relative="1" as="geometry"/>
                </mxCell>
                <mxCell id="29" value="if amountOfFood = 1" style="rhombus;whiteSpace=wrap;html=1;strokeWidth=2;" vertex="1" parent="1">
                    <mxGeometry x="622.5" y="575" width="90" height="105" as="geometry"/>
                </mxCell>
                <mxCell id="30" value="" style="edgeStyle=none;html=1;" edge="1" parent="1" source="32">
                    <mxGeometry relative="1" as="geometry">
                        <mxPoint x="665.7846003898635" y="895.7163742690057" as="targetPoint"/>
                    </mxGeometry>
                </mxCell>
                <mxCell id="31" value="" style="edgeStyle=none;html=1;" edge="1" parent="1" source="32" target="35">
                    <mxGeometry relative="1" as="geometry"/>
                </mxCell>
                <mxCell id="32" value="If amountOfFood = 2" style="rhombus;whiteSpace=wrap;html=1;strokeWidth=2;" vertex="1" parent="1">
                    <mxGeometry x="622.5" y="735" width="90" height="95" as="geometry"/>
                </mxCell>
                <mxCell id="33" value="" style="edgeStyle=none;html=1;" edge="1" parent="1" target="36">
                    <mxGeometry relative="1" as="geometry">
                        <mxPoint x="607.5" y="947.4999999999998" as="sourcePoint"/>
                    </mxGeometry>
                </mxCell>
                <mxCell id="60" value="" style="edgeStyle=none;html=1;" edge="1" parent="1" source="34" target="63">
                    <mxGeometry relative="1" as="geometry">
                        <mxPoint x="400" y="1040" as="targetPoint"/>
                        <Array as="points">
                            <mxPoint x="400" y="620"/>
                        </Array>
                    </mxGeometry>
                </mxCell>
                <mxCell id="34" value="heatingTime = 0 minutes 45 seconds" style="shape=parallelogram;perimeter=parallelogramPerimeter;whiteSpace=wrap;html=1;fixedSize=1;strokeWidth=2;" vertex="1" parent="1">
                    <mxGeometry x="437.5" y="597.5" width="120" height="60" as="geometry"/>
                </mxCell>
                <mxCell id="61" value="" style="edgeStyle=none;html=1;" edge="1" parent="1" source="35">
                    <mxGeometry relative="1" as="geometry">
                        <mxPoint x="400" y="1040" as="targetPoint"/>
                        <Array as="points">
                            <mxPoint x="400" y="783"/>
                        </Array>
                    </mxGeometry>
                </mxCell>
                <mxCell id="35" value="heatingTime= 1 minute 7.5 seconds" style="shape=parallelogram;perimeter=parallelogramPerimeter;whiteSpace=wrap;html=1;fixedSize=1;strokeWidth=2;" vertex="1" parent="1">
                    <mxGeometry x="437.5" y="752.5" width="120" height="60" as="geometry"/>
                </mxCell>
                <mxCell id="62" value="" style="edgeStyle=none;html=1;" edge="1" parent="1" source="36">
                    <mxGeometry relative="1" as="geometry">
                        <mxPoint x="400" y="1040" as="targetPoint"/>
                        <Array as="points">
                            <mxPoint x="400" y="950"/>
                        </Array>
                    </mxGeometry>
                </mxCell>
                <mxCell id="36" value="heatingTime= 1 minute 30 seconds" style="shape=parallelogram;perimeter=parallelogramPerimeter;whiteSpace=wrap;html=1;fixedSize=1;strokeWidth=2;" vertex="1" parent="1">
                    <mxGeometry x="410" y="917.5" width="120" height="60" as="geometry"/>
                </mxCell>
                <mxCell id="40" value="If amountOfFood = 3" style="rhombus;whiteSpace=wrap;html=1;strokeWidth=2;" vertex="1" parent="1">
                    <mxGeometry x="610" y="895" width="115" height="105" as="geometry"/>
                </mxCell>
                <mxCell id="41" value="yes" style="edgeLabel;html=1;align=center;verticalAlign=middle;resizable=0;points=[];" vertex="1" connectable="0" parent="1">
                    <mxGeometry x="994.5000000000002" y="510" as="geometry"/>
                </mxCell>
                <mxCell id="42" value="" style="edgeStyle=none;html=1;" edge="1" parent="1" source="44" target="47">
                    <mxGeometry relative="1" as="geometry"/>
                </mxCell>
                <mxCell id="43" value="" style="edgeStyle=none;html=1;" edge="1" parent="1" source="44" target="49">
                    <mxGeometry relative="1" as="geometry"/>
                </mxCell>
                <mxCell id="44" value="if amountOfFood = 1" style="rhombus;whiteSpace=wrap;html=1;strokeWidth=2;" vertex="1" parent="1">
                    <mxGeometry x="957.5" y="570" width="90" height="105" as="geometry"/>
                </mxCell>
                <mxCell id="45" value="" style="edgeStyle=none;html=1;" edge="1" parent="1" source="47">
                    <mxGeometry relative="1" as="geometry">
                        <mxPoint x="1000.7846003898635" y="890.7163742690057" as="targetPoint"/>
                    </mxGeometry>
                </mxCell>
                <mxCell id="46" value="" style="edgeStyle=none;html=1;" edge="1" parent="1" source="47" target="50">
                    <mxGeometry relative="1" as="geometry"/>
                </mxCell>
                <mxCell id="47" value="If amountOfFood = 2" style="rhombus;whiteSpace=wrap;html=1;strokeWidth=2;" vertex="1" parent="1">
                    <mxGeometry x="957.5" y="730" width="90" height="95" as="geometry"/>
                </mxCell>
                <mxCell id="48" value="" style="edgeStyle=none;html=1;" edge="1" parent="1" target="51">
                    <mxGeometry relative="1" as="geometry">
                        <mxPoint x="942.5" y="942.4999999999995" as="sourcePoint"/>
                    </mxGeometry>
                </mxCell>
                <mxCell id="64" value="" style="edgeStyle=none;html=1;entryX=1;entryY=0.5;entryDx=0;entryDy=0;entryPerimeter=0;" edge="1" parent="1" source="49" target="63">
                    <mxGeometry relative="1" as="geometry">
                        <Array as="points">
                            <mxPoint x="740" y="623"/>
                            <mxPoint x="750" y="1070"/>
                        </Array>
                    </mxGeometry>
                </mxCell>
                <mxCell id="49" value="heatingTime = 1 minutes 45 seconds" style="shape=parallelogram;perimeter=parallelogramPerimeter;whiteSpace=wrap;html=1;fixedSize=1;strokeWidth=2;" vertex="1" parent="1">
                    <mxGeometry x="772.5" y="592.5" width="120" height="60" as="geometry"/>
                </mxCell>
                <mxCell id="65" value="" style="edgeStyle=none;html=1;entryX=1;entryY=0.5;entryDx=0;entryDy=0;entryPerimeter=0;" edge="1" parent="1" source="50" target="63">
                    <mxGeometry relative="1" as="geometry">
                        <Array as="points">
                            <mxPoint x="740" y="770"/>
                            <mxPoint x="750" y="1070"/>
                        </Array>
                    </mxGeometry>
                </mxCell>
                <mxCell id="50" value="heatingTime= 2 minute 37.5 seconds" style="shape=parallelogram;perimeter=parallelogramPerimeter;whiteSpace=wrap;html=1;fixedSize=1;strokeWidth=2;" vertex="1" parent="1">
                    <mxGeometry x="772.5" y="747.5" width="120" height="60" as="geometry"/>
                </mxCell>
                <mxCell id="66" value="" style="edgeStyle=none;html=1;entryX=1;entryY=0.5;entryDx=0;entryDy=0;entryPerimeter=0;" edge="1" parent="1" source="51" target="63">
                    <mxGeometry relative="1" as="geometry">
                        <Array as="points">
                            <mxPoint x="750" y="950"/>
                            <mxPoint x="750" y="1070"/>
                        </Array>
                    </mxGeometry>
                </mxCell>
                <mxCell id="51" value="heatingTime= 3 minute 30 seconds" style="shape=parallelogram;perimeter=parallelogramPerimeter;whiteSpace=wrap;html=1;fixedSize=1;strokeWidth=2;" vertex="1" parent="1">
                    <mxGeometry x="772.5" y="912.5" width="120" height="60" as="geometry"/>
                </mxCell>
                <mxCell id="52" value="If amountOfFood = 3" style="rhombus;whiteSpace=wrap;html=1;strokeWidth=2;" vertex="1" parent="1">
                    <mxGeometry x="945" y="890" width="115" height="105" as="geometry"/>
                </mxCell>
                <mxCell id="63" value="Stop" style="strokeWidth=2;html=1;shape=mxgraph.flowchart.terminator;whiteSpace=wrap;" vertex="1" parent="1">
                    <mxGeometry x="350" y="1040" width="100" height="60" as="geometry"/>
                </mxCell>
            </root>
        </mxGraphModel>
    </diagram>
</mxfile>